<svg xmlns="http://www.w3.org/2000/svg" viewBox="0 0 1600 900">
  <defs>
    <linearGradient id="sky" x1="0" y1="0" x2="0" y2="1">
      <stop offset="0" stop-color="#3a3a46"/>
      <stop offset="1" stop-color="#2B2B35"/>
    </linearGradient>
  </defs>
  <rect width="1600" height="900" fill="url(#sky)"/>
  <g stroke="#4a4a58" stroke-width="2" opacity="0.5">
    <path d="M0 700 H1600"/>
    <path d="M200 700 V300 H520 V700"/>
    <path d="M560 700 V420 H820 V700"/>
    <path d="M900 700 V250 H1180 V700"/>
    <path d="M1240 700 V480 H1480 V700"/>
    <path d="M260 360 H460 M260 440 H460 M260 520 H460 M260 600 H460"/>
    <path d="M960 320 H1120 M960 400 H1120 M960 480 H1120 M960 560 H1120"/>
  </g>
  <g stroke="#F0A030" stroke-width="6" fill="none" opacity="0.85">
    <path d="M1180 250 L1180 120 L1420 120"/>
    <path d="M1300 120 V180"/>
    <circle cx="1420" cy="120" r="10" fill="#F0A030"/>
  </g>
  <rect y="700" width="1600" height="200" fill="#232329"/>
</svg>
